<mxfile host="app.diagrams.net" modified="2023-02-07T07:34:41.453Z" agent="5.0 (Windows NT 10.0; Win64; x64) AppleWebKit/537.36 (KHTML, like Gecko) Chrome/101.0.0.0 Safari/537.36" version="20.8.5" etag="Z51_3FIQZJPC_3H1xdiq" type="github">
  <diagram id="FtSM3fH2aMtdDgabhZQj" name="第 1 页">
    <mxGraphModel dx="1354" dy="635" grid="1" gridSize="10" guides="1" tooltips="1" connect="1" arrows="1" fold="1" page="1" pageScale="1" pageWidth="827" pageHeight="1169" math="0" shadow="0">
      <root>
        <mxCell id="0" />
        <mxCell id="1" parent="0" />
        <mxCell id="ldcu4t-Uv7J1QKPu2Rg_-1" value="" style="edgeStyle=orthogonalEdgeStyle;rounded=0;orthogonalLoop=1;jettySize=auto;html=1;" edge="1" parent="1" source="ldcu4t-Uv7J1QKPu2Rg_-2" target="ldcu4t-Uv7J1QKPu2Rg_-4">
          <mxGeometry relative="1" as="geometry" />
        </mxCell>
        <mxCell id="ldcu4t-Uv7J1QKPu2Rg_-2" value="开始" style="strokeWidth=2;html=1;shape=mxgraph.flowchart.start_1;whiteSpace=wrap;" vertex="1" parent="1">
          <mxGeometry x="220" y="50" width="100" height="60" as="geometry" />
        </mxCell>
        <mxCell id="ldcu4t-Uv7J1QKPu2Rg_-3" value="" style="edgeStyle=orthogonalEdgeStyle;rounded=0;orthogonalLoop=1;jettySize=auto;html=1;" edge="1" parent="1" source="ldcu4t-Uv7J1QKPu2Rg_-4" target="ldcu4t-Uv7J1QKPu2Rg_-6">
          <mxGeometry relative="1" as="geometry" />
        </mxCell>
        <mxCell id="ldcu4t-Uv7J1QKPu2Rg_-4" value="参数校验" style="rounded=1;whiteSpace=wrap;html=1;absoluteArcSize=1;arcSize=14;strokeWidth=2;" vertex="1" parent="1">
          <mxGeometry x="220" y="150" width="100" height="60" as="geometry" />
        </mxCell>
        <mxCell id="ldcu4t-Uv7J1QKPu2Rg_-5" value="" style="edgeStyle=orthogonalEdgeStyle;rounded=0;orthogonalLoop=1;jettySize=auto;html=1;" edge="1" parent="1" source="ldcu4t-Uv7J1QKPu2Rg_-6" target="ldcu4t-Uv7J1QKPu2Rg_-8">
          <mxGeometry relative="1" as="geometry" />
        </mxCell>
        <mxCell id="ldcu4t-Uv7J1QKPu2Rg_-6" value="添加接口资源配置信息" style="rounded=1;whiteSpace=wrap;html=1;absoluteArcSize=1;arcSize=14;strokeWidth=2;" vertex="1" parent="1">
          <mxGeometry x="220" y="260" width="100" height="60" as="geometry" />
        </mxCell>
        <mxCell id="ldcu4t-Uv7J1QKPu2Rg_-7" value="" style="edgeStyle=orthogonalEdgeStyle;rounded=0;orthogonalLoop=1;jettySize=auto;html=1;" edge="1" parent="1" source="ldcu4t-Uv7J1QKPu2Rg_-8" target="ldcu4t-Uv7J1QKPu2Rg_-9">
          <mxGeometry relative="1" as="geometry" />
        </mxCell>
        <mxCell id="ldcu4t-Uv7J1QKPu2Rg_-8" value="修改数据项资响应参数名和描述" style="rounded=1;whiteSpace=wrap;html=1;absoluteArcSize=1;arcSize=14;strokeWidth=2;" vertex="1" parent="1">
          <mxGeometry x="220" y="370" width="100" height="50" as="geometry" />
        </mxCell>
        <mxCell id="ldcu4t-Uv7J1QKPu2Rg_-9" value="结束" style="strokeWidth=2;html=1;shape=mxgraph.flowchart.terminator;whiteSpace=wrap;" vertex="1" parent="1">
          <mxGeometry x="220" y="460" width="100" height="60" as="geometry" />
        </mxCell>
      </root>
    </mxGraphModel>
  </diagram>
</mxfile>
